<?xml version="1.0" encoding="UTF-8"?>
<!-- Generated by Pixelmator Pro 3.7.1 -->
<svg width="54" height="54" viewBox="0 0 54 54" xmlns="http://www.w3.org/2000/svg">
    <path id="Path" fill="#007a4d" stroke="none" d="M 38.5714 0 L 15.4286 0 C 6.90761 0 0 6.907608 0 15.4286 L 0 38.5714 C 0 47.0924 6.90761 54 15.4286 54 L 38.5714 54 C 47.0924 54 54 47.0924 54 38.5714 L 54 15.4286 C 54 6.907608 47.0924 0 38.5714 0 Z"/>
    <g id="Group">
        <g id="dollar-finance-money-7-svgrepo-com">
            <path id="path1" fill="#ffffff" stroke="none" d="M 44.976349 22.051678 C 44.976349 22.043306 44.976349 22.034937 44.976353 22.018192 C 44.976353 22.00145 44.967983 21.984707 44.967983 21.976334 C 44.967983 21.96796 44.967983 21.959591 44.959614 21.951218 C 44.951244 21.934475 44.951244 21.917728 44.942875 21.900986 C 44.942875 21.892616 44.934505 21.884243 44.934505 21.884243 C 44.926136 21.859127 44.917763 21.842384 44.901024 21.817265 C 44.901024 21.817265 44.892654 21.808895 44.892654 21.808895 C 44.884277 21.792149 44.867538 21.775406 44.859169 21.758663 C 44.850796 21.75029 44.8508 21.741917 44.842426 21.741917 C 44.834057 21.733543 44.825687 21.716801 44.808945 21.708427 C 44.800575 21.700054 44.792198 21.691685 44.783829 21.683311 C 44.775459 21.674938 44.767086 21.666565 44.758717 21.658192 L 37.802361 15.964886 C 36.20364 12.817013 33.357475 10.489452 29.967041 9.559914 L 27.003681 7.131886 C 26.786036 6.956062 26.476284 6.956036 26.258606 7.131824 L 23.294838 9.55098 C 22.675323 9.718357 22.064175 9.944344 21.478136 10.203815 C 18.882826 11.375626 16.747883 13.418129 15.458437 15.962997 L 8.501116 21.655128 C 8.492743 21.663502 8.484372 21.671871 8.475999 21.680241 C 8.467627 21.688614 8.459254 21.696983 8.450883 21.696983 C 8.442511 21.705357 8.425765 21.722095 8.417394 21.730465 C 8.409021 21.738838 8.409021 21.738838 8.400648 21.747211 C 8.383904 21.76395 8.375531 21.780693 8.367158 21.797436 C 8.367158 21.797436 8.367157 21.805809 8.358785 21.805805 C 8.350411 21.830921 8.333668 21.847664 8.325293 21.872776 C 8.325293 21.881149 8.316919 21.889523 8.316919 21.889523 C 8.308548 21.906261 8.308545 21.923008 8.300173 21.939747 C 8.300172 21.94812 8.2918 21.956493 8.291799 21.964863 C 8.291798 21.981606 8.283424 21.998348 8.283424 22.006721 C 8.283422 22.015093 8.283422 22.023462 8.283421 22.040207 C 8.283419 22.05695 8.283418 22.073694 8.283418 22.082066 C 8.283417 22.090435 8.283417 22.090435 8.283417 22.098808 L 8.281994 38.925816 C 8.281758 41.721947 10.550282 43.990856 13.346413 43.991093 L 39.892902 43.993336 C 42.689034 43.993572 44.957939 41.725044 44.958179 38.928917 L 44.959599 22.101908 C 44.959599 22.093536 44.959599 22.093536 44.959602 22.085163 C 44.976341 22.085167 44.976349 22.068422 44.976349 22.051678 Z M 43.377365 22.034801 L 43.142944 22.177099 L 38.755978 24.813797 C 38.764355 24.788683 38.764359 24.77194 38.772728 24.746826 C 38.797852 24.663113 38.814602 24.571026 38.839725 24.48731 C 38.848099 24.453825 38.856472 24.420338 38.864849 24.386852 C 38.889973 24.269651 38.9151 24.152449 38.940224 24.03525 C 38.940224 24.026878 38.940224 24.018505 38.948597 24.010136 C 38.973721 23.901306 38.990471 23.792475 39.007225 23.683647 C 39.015598 23.65016 39.015606 23.608301 39.023979 23.574816 C 39.040726 23.491102 39.049107 23.399012 39.065857 23.315298 C 39.07423 23.281813 39.074234 23.248325 39.082611 23.206467 C 39.099365 23.089268 39.107746 22.963694 39.1245 22.846491 C 39.1245 22.838118 39.1245 22.838118 39.1245 22.829748 C 39.132885 22.712547 39.141262 22.595345 39.149647 22.478142 C 39.149647 22.444653 39.158024 22.402796 39.158028 22.36931 C 39.166409 22.277222 39.166412 22.193506 39.174793 22.101418 C 39.174797 22.067932 39.174797 22.026075 39.174801 21.992588 C 39.174812 21.867012 39.183193 21.749809 39.183201 21.624237 C 39.183216 21.490288 39.183228 21.356342 39.17487 21.214024 C 39.17487 21.172169 39.174873 21.130306 39.166504 21.088451 C 39.166515 20.996361 39.15815 20.90427 39.149784 20.812183 C 39.149792 20.761951 39.141422 20.711723 39.141426 20.661491 C 39.13306 20.569405 39.124699 20.485687 39.116333 20.40197 C 39.107967 20.351738 39.107967 20.309883 39.099606 20.259651 C 39.09124 20.167561 39.074505 20.067101 39.066143 19.97501 C 39.057774 19.933155 39.057774 19.89967 39.049408 19.857807 C 39.032673 19.723858 39.007572 19.589912 38.990837 19.464336 C 38.990837 19.44759 38.982468 19.430847 38.982471 19.414104 C 38.96574 19.296902 38.940632 19.188068 38.915527 19.070862 C 38.907158 19.029003 38.898788 18.987141 38.890427 18.936913 C 38.873688 18.853195 38.848579 18.761105 38.831844 18.677383 C 38.823475 18.627151 38.806736 18.585297 38.79837 18.535065 C 38.773262 18.451344 38.756523 18.36763 38.731415 18.283909 C 38.723045 18.250423 38.714676 18.225307 38.706306 18.191822 L 43.377365 22.034801 Z M 26.6436 8.345741 L 27.623016 9.149506 C 26.978403 9.09922 26.317041 9.099163 25.664049 9.149338 L 26.6436 8.345741 Z M 21.980345 11.275429 C 22.549639 11.024323 23.135672 10.815083 23.738443 10.656075 C 25.161654 10.279472 26.660189 10.187511 28.116838 10.38018 C 28.476814 10.430439 28.84516 10.489075 29.196764 10.572819 C 29.313963 10.597942 29.431164 10.631443 29.548367 10.656567 C 29.548367 10.656567 29.548367 10.656567 29.548367 10.656567 C 29.548367 10.656567 29.548367 10.656567 29.548367 10.656567 C 32.712776 11.493996 35.358032 13.662479 36.814449 16.601048 C 37.592884 18.174984 37.986206 19.866089 37.986057 21.624134 C 37.986053 21.716225 37.986042 21.808308 37.986038 21.892025 C 37.986031 21.925514 37.986031 21.950626 37.986027 21.975742 C 37.986023 22.034346 37.986015 22.101318 37.977642 22.15992 C 37.977638 22.193405 37.977638 22.226892 37.969261 22.268749 C 37.969257 22.318979 37.960876 22.377581 37.960873 22.427811 C 37.960873 22.469669 37.952499 22.503155 37.952492 22.545013 C 37.952488 22.595242 37.944115 22.645472 37.935738 22.6957 C 37.935734 22.73756 37.927361 22.771046 37.927353 22.812902 C 37.91898 22.863132 37.918976 22.913361 37.910599 22.963591 C 37.902225 23.005447 37.902222 23.047308 37.893845 23.080793 C 37.885471 23.131023 37.885468 23.181252 37.87709 23.223108 C 37.868717 23.264967 37.868713 23.306826 37.860336 23.340311 C 37.851963 23.390541 37.84359 23.432398 37.835209 23.482628 C 37.826836 23.524485 37.818459 23.566341 37.810085 23.6082 C 37.801712 23.658428 37.793335 23.700287 37.784958 23.750515 C 37.776581 23.792374 37.768208 23.83423 37.759834 23.876087 C 37.751457 23.926317 37.743084 23.968174 37.734703 24.018404 C 37.72633 24.060261 37.717957 24.102118 37.709579 24.143978 C 37.701206 24.194206 37.684456 24.236061 37.676083 24.286291 C 37.667709 24.328148 37.659332 24.370007 37.642586 24.403492 C 37.634209 24.45372 37.617462 24.495579 37.609085 24.537436 C 37.600712 24.579292 37.583969 24.621149 37.575592 24.654634 C 37.558846 24.696493 37.550468 24.746721 37.533722 24.78858 C 37.525349 24.830437 37.508598 24.872293 37.500225 24.905779 C 37.483479 24.947636 37.475105 24.997866 37.458355 25.039722 C 37.441612 25.081577 37.433239 25.115067 37.416489 25.156919 C 37.399738 25.198778 37.382996 25.249006 37.366245 25.290865 C 37.349503 25.33272 37.341129 25.366207 37.324379 25.408062 C 37.307629 25.449919 37.290886 25.500149 37.274136 25.542006 C 37.257393 25.583862 37.24902 25.617348 37.232269 25.659206 C 37.223896 25.675947 37.223896 25.684322 37.215519 25.701061 L 26.641594 32.079361 L 16.060369 25.732759 C 16.060369 25.72439 16.052 25.716015 16.052 25.707644 C 16.035257 25.674156 16.026892 25.632298 16.010149 25.59881 C 15.993411 25.556952 15.976672 25.515091 15.968303 25.47323 C 15.951561 25.439743 15.943194 25.397882 15.926453 25.364395 C 15.909714 25.322538 15.901345 25.280678 15.884606 25.238819 C 15.876237 25.20533 15.859498 25.163471 15.851129 25.129986 C 15.83439 25.088125 15.82602 25.046265 15.809281 25.004406 C 15.800912 24.970917 15.784173 24.929058 15.775804 24.895573 C 15.767434 24.853712 15.750695 24.811853 15.742329 24.769993 C 15.733959 24.728136 15.717217 24.694647 15.708851 24.652788 C 15.700481 24.610928 15.683743 24.569071 15.675376 24.52721 C 15.667006 24.485352 15.658637 24.451866 15.641898 24.410006 C 15.633531 24.368145 15.625161 24.326286 15.60842 24.292797 C 15.600053 24.25094 15.591683 24.217453 15.583317 24.175592 C 15.574947 24.133736 15.566578 24.100248 15.558211 24.058388 C 15.549842 24.016531 15.541475 23.97467 15.533106 23.941183 C 15.524738 23.899326 15.516369 23.865837 15.508002 23.823978 C 15.499633 23.78212 15.491266 23.740261 15.482897 23.6984 C 15.47453 23.656544 15.466161 23.623055 15.466163 23.581196 C 15.457796 23.539339 15.449427 23.497478 15.44106 23.455622 C 15.432691 23.422132 15.432693 23.380274 15.424326 23.346788 C 15.415956 23.304928 15.40759 23.263067 15.407592 23.212839 C 15.399225 23.179352 15.399228 23.137493 15.390859 23.104006 C 15.382492 23.062149 15.382494 23.011917 15.374127 22.970058 C 15.365758 22.936571 15.365761 22.894714 15.365766 22.861227 C 15.357396 22.819368 15.357401 22.769136 15.349031 22.72728 C 15.349034 22.693792 15.340668 22.651934 15.34067 22.618446 C 15.340672 22.57659 15.332306 22.526358 15.332311 22.484501 C 15.332314 22.44264 15.323944 22.400784 15.323949 22.367294 C 15.323952 22.325438 15.315582 22.283577 15.315587 22.24172 C 15.315593 22.174747 15.307225 22.107775 15.307231 22.049173 C 15.307233 22.032429 15.307233 22.015684 15.307236 21.99894 C 15.298874 21.873367 15.298886 21.739418 15.298894 21.630589 C 15.298904 21.521755 15.298915 21.412926 15.307295 21.304096 C 15.315684 21.094807 15.324074 20.877144 15.340836 20.667854 C 15.349218 20.533905 15.365973 20.408337 15.382727 20.274387 C 15.533524 19.001911 15.90198 17.771309 16.471352 16.6077 C 17.626837 14.24699 19.585962 12.355164 21.980345 11.275429 Z M 14.595967 18.198154 C 14.587593 18.223267 14.579219 18.256756 14.570844 18.281868 C 14.545723 18.365582 14.528974 18.449299 14.50385 18.533012 C 14.495476 18.583241 14.478726 18.625095 14.470352 18.675327 C 14.445231 18.759045 14.428479 18.851128 14.411728 18.934841 C 14.403354 18.9767 14.394979 19.018555 14.386601 19.068787 C 14.361478 19.177616 14.344727 19.286449 14.3196 19.403648 C 14.3196 19.420391 14.311226 19.445503 14.311223 19.46225 C 14.286098 19.596195 14.269343 19.721767 14.252589 19.855713 C 14.244214 19.897572 14.244212 19.931057 14.235837 19.972912 C 14.227458 20.064999 14.210706 20.157085 14.202327 20.257549 C 14.19395 20.307774 14.193944 20.358006 14.18557 20.399864 C 14.177193 20.483578 14.168813 20.575668 14.160434 20.659382 C 14.160428 20.70961 14.152054 20.759842 14.152049 20.81007 C 14.143669 20.902161 14.143661 20.994244 14.135282 21.086334 C 14.13528 21.128193 14.135274 21.170048 14.1269 21.211906 C 14.118518 21.345852 14.118505 21.479801 14.118495 21.613747 C 14.118487 21.697464 14.11848 21.79792 14.118469 21.906754 C 14.118466 21.948612 14.118464 21.990471 14.118459 22.03233 C 14.118459 22.040699 14.118459 22.040699 14.118459 22.04907 C 14.118448 22.149532 14.126813 22.249992 14.135175 22.350452 C 14.135172 22.38394 14.143541 22.417427 14.143539 22.450912 C 14.151903 22.526258 14.151898 22.601603 14.160263 22.668577 C 14.16026 22.702065 14.16863 22.743921 14.168627 22.777409 C 14.176991 22.852755 14.185355 22.928101 14.193723 23.003445 C 14.19372 23.036934 14.202089 23.062048 14.202086 23.095533 C 14.210448 23.204367 14.227182 23.304829 14.243916 23.413662 C 14.243916 23.430403 14.252285 23.447147 14.252283 23.472263 C 14.269019 23.555981 14.277384 23.648069 14.29412 23.731787 C 14.302489 23.765274 14.302486 23.798761 14.310854 23.84062 C 14.327592 23.915968 14.335957 23.982941 14.352693 24.058285 C 14.361062 24.091774 14.369431 24.133633 14.377799 24.167118 C 14.394538 24.242466 14.411274 24.326183 14.42801 24.401531 C 14.436379 24.426645 14.436377 24.451761 14.444746 24.476877 C 14.469852 24.577337 14.494958 24.686171 14.520066 24.786634 C 14.520063 24.795006 14.520063 24.795006 14.520063 24.803375 L 9.899149 22.031973 L 14.595967 18.198154 Z M 39.918118 42.829678 L 13.363254 42.827435 C 11.220113 42.827255 9.478958 41.077431 9.479139 38.934292 L 9.480474 23.145365 L 12.75362 25.112978 L 15.290101 26.636833 C 15.290101 26.636833 15.290101 26.636833 15.290101 26.636833 L 26.340115 33.268112 C 26.432198 33.326721 26.541027 33.351845 26.641485 33.351852 C 26.741949 33.35186 26.850779 33.326756 26.942873 33.268162 L 42.724228 23.801163 L 43.812595 23.148266 L 43.811264 38.937191 C 43.802708 41.080334 42.061256 42.829861 39.918118 42.829678 Z"/>
            <path id="path2" fill="#ffffff" stroke="none" d="M 22.046038 26.428114 C 23.217999 27.257006 24.540672 27.776159 25.988956 27.92697 L 25.988855 29.115746 C 25.988817 29.576187 26.37388 29.944569 26.83432 29.944611 C 27.294762 29.944649 27.663149 29.576328 27.663187 29.115887 L 27.663284 27.960598 C 30.099449 27.726398 31.757156 26.328474 31.757336 24.210445 C 31.757509 22.151022 30.510235 20.978886 27.588587 20.250305 L 27.588902 16.558411 C 28.241877 16.709152 28.89484 17.002216 29.564539 17.404114 C 29.757078 17.521332 29.949619 17.579948 30.142166 17.579964 C 30.736553 17.580017 31.222151 17.119617 31.2222 16.52523 C 31.22224 16.064789 30.95437 15.771763 30.64463 15.604301 C 29.757288 15.043327 28.802946 14.683262 27.664417 14.549217 L 27.664454 14.122265 C 27.664494 13.661827 27.296167 13.293442 26.835728 13.293404 C 26.375288 13.293365 25.990162 13.661682 25.990122 14.122124 L 25.990089 14.523964 C 23.587408 14.716312 21.954817 16.139355 21.954643 18.190403 C 21.954464 20.358662 23.260347 21.42197 26.064789 22.150539 L 26.06447 25.934526 C 25.009657 25.741886 24.122301 25.298117 23.218218 24.645052 C 23.042423 24.511089 22.816397 24.435726 22.581991 24.435705 C 21.987604 24.435656 21.527124 24.896057 21.527075 25.490444 C 21.527039 25.909027 21.719561 26.218794 22.046038 26.428114 Z M 27.580027 22.527393 C 29.061769 22.987959 29.480307 23.507036 29.480234 24.352573 C 29.480158 25.273455 28.810371 25.8929 27.579731 26.026741 L 27.580027 22.527393 Z M 24.223373 18.073395 C 24.223444 17.227856 24.834629 16.574921 26.065271 16.457821 L 26.064981 19.856709 C 24.583242 19.379402 24.223303 18.877071 24.223373 18.073395 Z"/>
        </g>
    </g>
</svg>
