<?xml version="1.0" encoding="UTF-8"?>
<!-- Generated by Pixelmator Pro 3.7.1 -->
<svg width="54" height="54" viewBox="0 0 54 54" xmlns="http://www.w3.org/2000/svg">
    <path id="Path" fill="#007a4d" stroke="none" d="M 38.5714 0 L 15.4286 0 C 6.90761 0 0 6.907608 0 15.4286 L 0 38.5714 C 0 47.0924 6.90761 54 15.4286 54 L 38.5714 54 C 47.0924 54 54 47.0924 54 38.5714 L 54 15.4286 C 54 6.907608 47.0924 0 38.5714 0 Z"/>
    <g id="dollar-finance-money-28-svgrepo-com">
        <path id="path1" fill="#ffffff" stroke="none" d="M 32.685364 34.42614 C 34.000004 34.42625 35.068722 33.357716 35.068832 32.043076 C 35.068943 30.728434 34.000408 29.659719 32.685768 29.659607 C 31.371128 29.659496 30.30241 30.728033 30.302301 32.042671 C 30.302189 33.357315 31.370724 34.426025 32.685364 34.42614 Z M 32.685677 30.73592 C 33.408344 30.735981 33.99258 31.320316 33.992519 32.042984 C 33.992458 32.765656 33.408123 33.349888 32.685455 33.349827 C 31.962788 33.349766 31.378553 32.76543 31.378614 32.042763 C 31.378675 31.320095 31.963009 30.735859 32.685677 30.73592 Z"/>
        <path id="path2" fill="#ffffff" stroke="none" d="M 38.50721 10.002003 L 14.874438 10 C 14.574608 9.999977 14.33626 10.238281 14.336234 10.538113 L 14.335428 20.086555 C 13.166847 20.224834 12.267273 21.224197 12.267172 22.423517 L 12.265547 41.643402 C 12.265438 42.942665 13.326284 44.003696 14.62555 44.003807 L 38.765728 44.005844 C 40.064991 44.005955 41.126022 42.945107 41.126129 41.645844 L 41.126587 36.218147 C 41.126587 36.218147 41.126587 36.210457 41.126587 36.210457 L 41.127293 27.869028 C 41.127293 27.869028 41.127293 27.86134 41.127293 27.86134 L 41.12775 22.433641 C 41.127853 21.226631 40.22076 20.234814 39.059887 20.096333 L 39.060699 10.540203 C 39.045345 10.248058 38.807041 10.002026 38.50721 10.002003 Z M 15.412503 11.076359 L 37.976646 11.078266 L 37.975887 20.073174 L 34.992962 20.072922 C 35.008343 20.042171 35.031406 20.019112 35.046787 19.996048 C 35.054474 19.988358 35.054474 19.980671 35.062164 19.972984 C 35.077541 19.949924 35.100609 19.926861 35.123676 19.903797 C 35.131363 19.896114 35.131363 19.888424 35.139053 19.888424 C 35.162113 19.86536 35.192871 19.83461 35.215935 19.81155 C 35.223625 19.803864 35.231312 19.803864 35.231316 19.796177 C 35.254379 19.773113 35.277447 19.75774 35.300507 19.742367 C 35.308197 19.73468 35.315884 19.73468 35.323574 19.726994 C 35.354328 19.703934 35.385082 19.688557 35.415833 19.665497 C 35.423523 19.665497 35.43121 19.65781 35.43121 19.65781 C 35.454277 19.642437 35.485031 19.627064 35.508099 19.611687 C 35.515785 19.604 35.523476 19.604 35.531158 19.596313 C 35.561913 19.580944 35.600357 19.565567 35.631111 19.550194 C 35.638794 19.550194 35.638794 19.550194 35.646484 19.542511 C 35.677238 19.534824 35.707993 19.519451 35.738739 19.511765 C 35.746429 19.511765 35.754116 19.504078 35.769493 19.504078 C 35.807938 19.496395 35.838692 19.488708 35.877129 19.481026 C 35.877129 19.481026 35.884815 19.481026 35.884815 19.481026 C 35.915569 19.473339 35.954006 19.473347 35.98476 19.46566 C 35.992451 19.46566 36.007828 19.46566 36.015514 19.46566 C 36.053951 19.465664 36.092392 19.457977 36.130833 19.457981 L 36.584419 19.458019 C 36.884251 19.458042 37.122597 19.219738 37.122627 18.919907 L 37.122967 14.829914 C 37.122997 14.530087 36.884689 14.291737 36.584862 14.291714 L 36.131271 14.291676 C 35.608486 14.29163 35.131859 13.999447 34.90126 13.530468 C 34.801334 13.338257 34.755226 13.130676 34.755245 12.915417 L 34.75528 12.461826 C 34.755306 12.161995 34.516998 11.923653 34.217171 11.923626 L 19.156466 11.922356 C 18.856636 11.922325 18.61829 12.160633 18.618265 12.460461 L 18.618225 12.914051 C 18.618183 13.421459 18.341377 13.882713 17.895456 14.128689 C 17.68787 14.236301 17.472605 14.297787 17.234278 14.297771 L 16.780687 14.297726 C 16.480858 14.297703 16.24251 14.536011 16.242485 14.835838 L 16.24214 18.933521 C 16.242113 19.233353 16.480421 19.471695 16.780251 19.471725 L 17.233839 19.47176 C 17.272278 19.471767 17.31072 19.471767 17.349159 19.479458 C 17.356848 19.479462 17.372221 19.479462 17.37991 19.479462 C 17.418348 19.479465 17.4491 19.487156 17.479853 19.494846 C 17.479853 19.494846 17.487541 19.494846 17.487541 19.494846 C 17.52598 19.502537 17.55673 19.510227 17.595169 19.517918 C 17.602858 19.517918 17.610542 19.525608 17.625921 19.525608 C 17.656673 19.533298 17.687422 19.548676 17.718174 19.556366 C 17.725861 19.556374 17.725861 19.556374 17.733547 19.564056 C 17.764299 19.579437 17.802738 19.594814 17.833488 19.610195 C 17.841175 19.617882 17.848862 19.617882 17.85655 19.625572 C 17.8873 19.640949 17.910364 19.65633 17.933426 19.671707 C 17.941114 19.671707 17.948803 19.679398 17.948803 19.679398 C 17.979551 19.694775 18.010302 19.717842 18.041052 19.74091 C 18.04874 19.748596 18.056427 19.748596 18.064116 19.756287 C 18.087177 19.771664 18.110237 19.794727 18.133303 19.810104 C 18.140987 19.817795 18.148676 19.817795 18.148676 19.825481 C 18.17174 19.848549 18.20249 19.871616 18.22555 19.90237 C 18.233236 19.910061 18.233236 19.917747 18.240923 19.917747 C 18.263987 19.940811 18.27936 19.963879 18.30242 19.986942 C 18.310108 19.994633 18.310108 20.002319 18.317797 20.01001 C 18.340857 20.033077 18.356232 20.063831 18.371605 20.086891 L 15.396365 20.086643 L 15.397127 11.076359 Z M 19.570927 20.071617 C 19.570927 20.063934 19.56324 20.063934 19.56324 20.056244 C 19.547871 20.002426 19.524811 19.948608 19.501751 19.894791 C 19.501751 19.894791 19.501751 19.8871 19.494062 19.8871 C 19.471004 19.833286 19.447945 19.787155 19.424885 19.741028 C 19.424885 19.733334 19.417196 19.725651 19.417196 19.725651 C 19.394138 19.67952 19.36339 19.625698 19.34033 19.579571 C 19.332642 19.57188 19.332644 19.564194 19.324955 19.556503 C 19.294207 19.510372 19.26346 19.464245 19.232714 19.418114 C 19.225025 19.410423 19.225025 19.402737 19.217339 19.395046 C 19.148153 19.302788 19.07897 19.218216 19.002098 19.13364 C 18.99441 19.12595 18.99441 19.118267 18.986721 19.118267 C 18.948286 19.079823 18.909851 19.041378 18.871412 19.01062 C 18.863726 19.002934 18.856037 18.995243 18.848351 18.987556 C 18.809916 18.949116 18.763788 18.918358 18.725351 18.887604 C 18.717667 18.879913 18.717667 18.879913 18.709978 18.872227 C 18.663853 18.841469 18.625416 18.810719 18.579288 18.779961 C 18.579288 18.779961 18.571604 18.77227 18.571604 18.77227 C 18.525478 18.741516 18.479351 18.718449 18.433228 18.687691 C 18.425541 18.680004 18.41785 18.68 18.410164 18.672314 C 18.364038 18.649246 18.317913 18.626179 18.264099 18.603107 C 18.256413 18.595421 18.248724 18.595421 18.241035 18.58773 C 18.187222 18.564663 18.141096 18.541595 18.087282 18.526215 C 18.079594 18.526215 18.079594 18.526215 18.071907 18.518524 C 18.018093 18.503143 17.971968 18.480076 17.91815 18.472385 C 17.910465 18.472382 17.902777 18.464695 17.89509 18.464695 C 17.841272 18.449314 17.78746 18.433933 17.733644 18.426243 C 17.725956 18.426243 17.710581 18.418552 17.702894 18.418552 C 17.649078 18.410858 17.595263 18.403168 17.541449 18.39547 C 17.533758 18.39547 17.526073 18.39547 17.510696 18.39547 C 17.449192 18.387775 17.39538 18.387772 17.333876 18.380081 L 17.334131 15.358715 C 17.710842 15.343369 18.087561 15.243462 18.418156 15.058975 C 19.186987 14.64389 19.671396 13.85207 19.702221 12.991024 L 33.694298 12.992207 C 33.709644 13.345856 33.794182 13.691818 33.955605 14.007042 C 34.362995 14.814308 35.162498 15.329468 36.061989 15.360294 L 36.061733 18.381664 C 36.000229 18.381657 35.946411 18.389339 35.884907 18.397022 C 35.877216 18.397022 35.869534 18.397022 35.861847 18.397022 C 35.808025 18.404705 35.754211 18.412388 35.700394 18.420071 C 35.692711 18.420071 35.677334 18.427757 35.669643 18.427757 C 35.615826 18.435444 35.562012 18.450809 35.50819 18.466183 C 35.500504 18.466183 35.492813 18.473873 35.48513 18.473869 C 35.431309 18.489239 35.377495 18.504612 35.331364 18.527672 C 35.331364 18.527672 35.323677 18.527672 35.323677 18.527672 C 35.269859 18.543041 35.216042 18.566105 35.169914 18.589161 C 35.162224 18.589161 35.154537 18.596848 35.146847 18.596848 C 35.100716 18.619907 35.046902 18.642967 35.000771 18.666031 C 34.99308 18.673714 34.985394 18.673714 34.977703 18.6814 C 34.931576 18.70446 34.885445 18.735207 34.831623 18.765957 C 34.831623 18.765957 34.82394 18.77364 34.82394 18.77364 C 34.777809 18.80439 34.731678 18.835136 34.693237 18.865887 C 34.685547 18.873577 34.685547 18.873577 34.67786 18.881264 C 34.631729 18.91201 34.593285 18.950447 34.554844 18.981194 C 34.547153 18.988884 34.539467 18.996571 34.531776 19.004257 C 34.493332 19.042694 34.454895 19.073444 34.416451 19.111877 C 34.40876 19.119568 34.401073 19.127254 34.401073 19.127254 C 34.362629 19.165688 34.324184 19.211815 34.285744 19.250252 C 34.285744 19.250252 34.285744 19.250252 34.285744 19.250252 C 34.247299 19.296379 34.216541 19.334812 34.185787 19.380936 C 34.178097 19.388626 34.178097 19.396313 34.170406 19.403999 C 34.139652 19.450123 34.108894 19.488564 34.078144 19.534687 C 34.070454 19.542374 34.070454 19.550064 34.062763 19.565441 C 34.032009 19.611565 34.008942 19.657692 33.985874 19.703815 C 33.98587 19.711506 33.978184 19.719193 33.978184 19.726879 C 33.955116 19.773003 33.932045 19.81913 33.908978 19.872944 C 33.908978 19.880634 33.901291 19.880634 33.901291 19.888317 C 33.87822 19.942135 33.862843 19.988258 33.847462 20.042076 C 33.847462 20.049759 33.839771 20.057449 33.839771 20.057449 L 19.570929 20.056244 Z M 40.042629 35.679897 L 29.487068 35.679005 C 29.225677 35.678986 29.01812 35.47139 29.018143 35.210003 L 29.018679 28.867441 C 29.0187 28.606047 29.226294 28.398493 29.487686 28.398514 L 40.035557 28.399403 L 40.034946 35.679897 Z M 40.043751 22.43355 L 40.043339 27.33078 L 29.487774 27.329887 C 28.634411 27.329817 27.942434 28.021673 27.942366 28.875034 L 27.941828 35.217598 C 27.941755 36.070961 28.633614 36.762932 29.486979 36.763008 L 40.034851 36.763901 L 40.034439 41.661125 C 40.034378 42.368416 39.457733 42.944965 38.750443 42.944904 L 14.617951 42.942867 C 13.91066 42.942806 13.334111 42.366161 13.334172 41.658871 L 13.335796 22.438982 C 13.335855 21.731689 13.912501 21.155144 14.619793 21.155201 L 14.873496 21.155224 L 19.140308 21.155586 L 34.239452 21.15686 L 38.506268 21.157219 L 38.759968 21.157246 C 39.467262 21.149616 40.043812 21.726261 40.043751 22.43355 Z"/>
        <path id="path3" fill="#ffffff" stroke="none" d="M 21.055109 15.2514 C 20.163305 15.25132 19.43289 15.981617 19.432814 16.873417 C 19.432762 17.48077 19.770985 18.034328 20.30912 18.311142 C 20.539747 18.43417 20.793446 18.495693 21.054834 18.495712 C 21.623745 18.495766 22.154238 18.195976 22.446423 17.703976 C 22.454111 17.696285 22.454111 17.688599 22.4618 17.680912 C 22.600204 17.434906 22.677107 17.15815 22.677132 16.873695 C 22.684895 15.981892 21.954599 15.251476 21.055109 15.2514 Z M 21.539293 17.1273 C 21.539291 17.134987 21.531605 17.134987 21.531603 17.142673 C 21.431646 17.311802 21.254814 17.419418 21.054926 17.419399 C 20.97036 17.419395 20.885794 17.396324 20.801229 17.357876 C 20.616726 17.265606 20.509111 17.081081 20.509127 16.873512 C 20.509153 16.573681 20.75519 16.327686 21.055019 16.327713 C 21.354849 16.327736 21.600843 16.573772 21.600817 16.8736 C 21.608496 16.965858 21.585426 17.050423 21.539293 17.1273 Z"/>
        <path id="path4" fill="#ffffff" stroke="none" d="M 32.417908 15.252357 C 31.526104 15.252281 30.795687 15.982578 30.79561 16.874378 C 30.795534 17.766182 31.525829 18.496597 32.417633 18.496674 C 33.309433 18.49675 34.039852 17.766457 34.039928 16.874657 C 34.040005 15.982849 33.309711 15.252438 32.417908 15.252357 Z M 32.417725 17.420361 C 32.117893 17.420338 31.871901 17.174301 31.871925 16.874474 C 31.871948 16.574642 32.117985 16.328648 32.417816 16.328671 C 32.717644 16.328697 32.963638 16.57473 32.963615 16.874561 C 32.963589 17.174393 32.717552 17.420387 32.417725 17.420361 Z"/>
        <path id="path5" fill="#ffffff" stroke="none" d="M 27.013178 16.412785 L 27.013283 15.159649 C 27.236229 15.213482 27.459169 15.313446 27.68211 15.444157 C 27.751297 15.482601 27.812801 15.505672 27.88199 15.505676 C 28.081879 15.505695 28.251024 15.351952 28.251043 15.144375 C 28.251055 14.990612 28.15881 14.890663 28.051186 14.829155 C 27.751368 14.636925 27.420799 14.513889 27.036404 14.467731 L 27.036417 14.321663 C 27.03643 14.167904 26.913435 14.037193 26.751986 14.037182 C 26.59054 14.037167 26.467524 14.160164 26.467508 14.321609 L 26.467497 14.459995 C 25.652567 14.529118 25.098995 15.005726 25.098936 15.70533 C 25.098909 16.005157 25.17577 16.243492 25.321825 16.435707 C 25.544752 16.720177 25.929134 16.90472 26.49803 17.050842 L 26.497919 18.334724 C 26.136593 18.265507 25.836775 18.119408 25.529274 17.896431 C 25.467775 17.850296 25.390898 17.827232 25.31402 17.827221 C 25.114132 17.827206 24.952671 17.980953 24.952656 18.188526 C 24.952644 18.326908 25.021826 18.426857 25.12945 18.503746 C 25.5292 18.788235 25.975088 18.957405 26.467113 19.011265 L 26.467077 19.418724 C 26.467064 19.572487 26.597748 19.703194 26.751505 19.703205 C 26.905266 19.703217 27.035973 19.580223 27.035986 19.418777 L 27.03602 19.026688 C 27.866323 18.949879 28.427586 18.473274 28.427647 17.750607 C 28.427704 17.058689 28.004902 16.658882 27.013178 16.412785 Z"/>
    </g>
</svg>
