<?xml version="1.0" encoding="UTF-8"?>
<!-- Generated by Pixelmator Pro 3.7.1 -->
<svg width="54" height="54" viewBox="0 0 54 54" xmlns="http://www.w3.org/2000/svg">
    <path id="Path" fill="#007a4d" stroke="none" d="M 38.5714 0 L 15.4286 0 C 6.90761 0 0 6.907608 0 15.4286 L 0 38.5714 C 0 47.0924 6.90761 54 15.4286 54 L 38.5714 54 C 47.0924 54 54 47.0924 54 38.5714 L 54 15.4286 C 54 6.907608 47.0924 0 38.5714 0 Z"/>
    <g id="dollar-finance-money-40-svgrepo-com">
        <path id="path1" fill="#ffffff" stroke="none" d="M 18.431683 20.373493 L 31.72085 20.374615 C 32.021473 20.374645 32.260452 20.135708 32.260479 19.835083 C 32.260502 19.534458 32.021564 19.295479 31.720942 19.295448 L 18.431774 19.294327 C 18.131149 19.294304 17.892168 19.533241 17.892143 19.833866 C 17.89212 20.134491 18.138765 20.37347 18.431683 20.373493 Z"/>
        <path id="path2" fill="#ffffff" stroke="none" d="M 16.111153 24.17351 L 34.040737 24.175022 C 34.341362 24.175047 34.580341 23.93611 34.580364 23.635485 C 34.580391 23.33486 34.341454 23.095881 34.040829 23.095856 L 16.111244 23.094343 C 15.810617 23.094315 15.571639 23.333252 15.571615 23.633877 C 15.571589 23.934502 15.818234 24.173481 16.111153 24.17351 Z"/>
        <path id="path3" fill="#ffffff" stroke="none" d="M 34.580082 26.980902 C 34.580109 26.680277 34.341171 26.441298 34.040546 26.441273 L 16.11096 26.439756 C 15.810336 26.439734 15.571358 26.678671 15.571332 26.979296 C 15.571306 27.279921 15.810245 27.5189 16.11087 27.518923 L 34.040455 27.520439 C 34.34108 27.520464 34.580059 27.281528 34.580082 26.980902 Z"/>
        <path id="path4" fill="#ffffff" stroke="none" d="M 31.735397 30.657536 L 29.153191 29.655235 C 29.029861 29.608974 28.891111 29.608963 28.760065 29.655203 L 26.370403 30.580002 L 23.980898 29.654799 C 23.857569 29.608538 23.718819 29.608524 23.587772 29.654766 L 21.198111 30.579561 L 18.808605 29.654362 C 18.531115 29.546421 18.215063 29.685144 18.107121 29.962635 C 17.99918 30.240128 18.137905 30.556177 18.415396 30.664122 L 20.997602 31.666424 C 21.120932 31.712679 21.259682 31.71269 21.390728 31.666456 L 23.78039 30.741657 L 26.169895 31.666861 C 26.293222 31.713116 26.431974 31.713129 26.563021 31.666893 L 28.952682 30.742094 L 31.342188 31.667297 C 31.403851 31.690426 31.473225 31.705849 31.534891 31.705854 C 31.750727 31.705873 31.958862 31.574848 32.035965 31.359022 C 32.151611 31.073822 32.012886 30.765476 31.735397 30.657536 Z"/>
        <path id="path5" fill="#ffffff" stroke="none" d="M 43.721439 35.599594 C 43.798553 35.237305 43.837124 34.875015 43.837154 34.50502 C 43.837315 32.631893 42.812252 30.889723 41.193581 29.964586 L 41.194798 15.588543 C 41.19482 15.287918 40.955883 15.048939 40.655258 15.048916 L 11.540881 15.046452 C 11.240255 15.046429 11.001278 15.285366 11.001253 15.585991 L 10.999653 34.509949 C 10.999628 34.810577 11.238565 35.049553 11.53919 35.049583 L 33.430859 35.05143 C 33.446262 35.236435 33.477077 35.421432 33.515602 35.606438 L 29.422132 39.699215 C 29.275661 39.845665 29.221685 40.069202 29.298752 40.269623 C 29.368109 40.470047 29.553097 40.601105 29.761221 40.624245 L 32.304955 40.840294 L 32.520573 43.384064 C 32.535969 43.59219 32.674706 43.769493 32.875114 43.846592 C 32.936779 43.869724 32.998447 43.877438 33.060112 43.877441 C 33.198868 43.877453 33.33762 43.823509 33.445541 43.723309 L 37.539017 39.630527 C 37.893589 39.707642 38.263588 39.746216 38.633591 39.746246 C 39.00359 39.746277 39.365883 39.707764 39.728184 39.630711 L 43.820957 43.724186 C 43.921158 43.824402 44.059906 43.878372 44.206364 43.878384 C 44.268032 43.878387 44.3297 43.870686 44.391365 43.847565 C 44.591789 43.778206 44.722847 43.593216 44.745991 43.385098 L 44.96204 40.841366 L 47.50581 40.625744 C 47.713936 40.610348 47.891235 40.471611 47.968334 40.271202 C 48.037731 40.070789 47.991497 39.854954 47.845051 39.700775 L 43.721439 35.599594 Z M 12.080374 16.125668 L 40.123291 16.128033 L 40.122162 29.501995 C 40.114456 29.501995 40.099037 29.494284 40.091328 29.494284 C 40.075916 29.486576 40.060497 29.486572 40.037376 29.478863 C 39.967999 29.455732 39.890919 29.44031 39.821541 29.424887 C 39.806126 29.424885 39.79071 29.417177 39.775295 29.417173 C 39.690502 29.401751 39.605713 29.37862 39.520924 29.370903 C 39.497799 29.370901 39.48238 29.36319 39.459259 29.36319 C 39.382175 29.347767 39.305096 29.34005 39.228008 29.332336 C 39.220303 29.332335 39.204884 29.332335 39.197178 29.332335 C 39.112385 29.324619 39.027592 29.316904 38.935093 29.309187 C 38.911972 29.309185 38.896553 29.309183 38.873428 29.309181 C 38.788635 29.301464 38.696136 29.301458 38.611343 29.301451 C 38.526554 29.301443 38.434055 29.301437 38.349262 29.309137 C 38.318428 29.309134 38.295303 29.316839 38.264469 29.316837 C 38.21051 29.316833 38.148846 29.324537 38.094883 29.332241 C 38.064053 29.332239 38.025509 29.339943 37.994675 29.347649 C 37.940716 29.355352 37.894463 29.363056 37.840504 29.37076 C 37.801964 29.378468 37.77113 29.386171 37.73259 29.386168 C 37.686337 29.393871 37.640087 29.401579 37.586128 29.409281 C 37.547585 29.416986 37.51675 29.424692 37.47821 29.432396 C 37.431961 29.4401 37.385708 29.455513 37.339455 29.463219 C 37.300915 29.470926 37.270081 29.478628 37.231541 29.494041 C 37.185287 29.509457 37.139034 29.517159 37.100494 29.532574 C 37.061951 29.540277 37.031116 29.555691 36.992573 29.563398 C 36.946323 29.578812 36.90778 29.594221 36.86153 29.609636 C 36.822983 29.625051 36.792149 29.632755 36.761314 29.64817 C 36.715065 29.663586 36.676521 29.678995 36.630272 29.70212 C 36.599438 29.717531 36.56089 29.732944 36.530056 29.748356 C 36.491516 29.763771 36.445263 29.78689 36.406719 29.802305 C 36.375885 29.817722 36.345047 29.833136 36.306507 29.848547 C 36.267963 29.87167 36.22171 29.887081 36.18317 29.910206 C 36.152336 29.925617 36.121502 29.941031 36.090668 29.956448 C 36.05212 29.979567 36.005867 30.002689 35.967327 30.02581 C 35.936493 30.041225 35.905659 30.056639 35.88253 30.079762 C 35.843987 30.102884 35.797733 30.133711 35.75919 30.156834 C 35.728352 30.172247 35.705231 30.195374 35.674397 30.210785 C 35.628139 30.241617 35.5896 30.272446 35.543343 30.303274 C 35.520218 30.318693 35.497093 30.334105 35.473965 30.357229 C 35.427711 30.395767 35.373749 30.434303 35.327496 30.472841 C 35.312077 30.488256 35.296661 30.495962 35.281242 30.511379 C 35.21957 30.565331 35.157902 30.619284 35.09623 30.673235 C 35.09623 30.673235 35.09623 30.673235 35.09623 30.673235 C 35.034557 30.727192 34.980595 30.781147 34.918922 30.842806 C 34.903503 30.858221 34.888088 30.873636 34.872669 30.896763 C 34.834122 30.935301 34.795578 30.981543 34.757034 31.020082 C 34.733906 31.043207 34.718491 31.066332 34.695362 31.089455 C 34.664528 31.127993 34.62598 31.166533 34.595142 31.205072 C 34.572014 31.228193 34.556595 31.251314 34.53347 31.28215 C 34.502632 31.320688 34.471798 31.359228 34.44096 31.397768 C 34.417835 31.420889 34.402412 31.451721 34.379284 31.474844 C 34.34845 31.513386 34.325321 31.551924 34.294487 31.590462 C 34.279068 31.621294 34.255939 31.644415 34.24052 31.675247 C 34.217392 31.713785 34.186554 31.752327 34.163429 31.798576 C 34.148006 31.829407 34.124878 31.860241 34.109459 31.891071 C 34.086334 31.929611 34.063202 31.975861 34.040073 32.014397 C 34.024654 32.045227 34.009239 32.076061 33.993816 32.106895 C 33.970692 32.145432 33.947559 32.191681 33.93214 32.230225 C 33.916721 32.261055 33.901299 32.291885 33.88588 32.322723 C 33.862751 32.368965 33.847332 32.407505 33.824203 32.453754 C 33.808784 32.484589 33.793365 32.515419 33.785652 32.546253 C 33.770233 32.592503 33.747101 32.638748 33.731686 32.677288 C 33.716267 32.708122 33.708553 32.738953 33.693134 32.777493 C 33.677715 32.823746 33.662296 32.869987 33.646873 32.916237 C 33.639164 32.947071 33.623745 32.977905 33.616032 33.016449 C 33.600609 33.062695 33.58519 33.116653 33.577477 33.162903 C 33.569767 33.193733 33.562054 33.224564 33.554344 33.255398 C 33.538921 33.309357 33.531212 33.363312 33.515785 33.417271 C 33.50808 33.448105 33.500366 33.47123 33.500366 33.50206 C 33.484943 33.563725 33.477226 33.633102 33.461807 33.694767 C 33.461803 33.710182 33.454098 33.733307 33.454094 33.748726 C 33.438671 33.833511 33.430958 33.918304 33.423237 34.003098 L 12.078863 34.001293 L 12.080374 16.125668 Z M 33.491928 42.119976 L 33.337917 40.285381 C 33.314816 40.023296 33.106709 39.815155 32.844627 39.792007 L 31.010054 39.637684 L 33.900921 36.747307 C 33.90863 36.755013 33.90863 36.770428 33.916336 36.778137 C 33.939457 36.82439 33.962582 36.870644 33.985703 36.916893 C 33.993408 36.932312 34.001118 36.955437 34.016529 36.970856 C 34.047359 37.024818 34.07048 37.071068 34.101311 37.125031 C 34.109016 37.132736 34.109016 37.14045 34.116726 37.148155 C 34.147552 37.209824 34.186089 37.263786 34.224628 37.317749 C 34.232334 37.333164 34.247749 37.348579 34.255455 37.364002 C 34.286285 37.410255 34.309406 37.448799 34.340237 37.487343 C 34.347942 37.502758 34.363358 37.518177 34.371067 37.533592 C 34.409603 37.587555 34.448143 37.633808 34.486679 37.687767 C 34.486679 37.687767 34.494385 37.69548 34.494385 37.69548 C 34.532921 37.749443 34.57917 37.803402 34.617706 37.849655 C 34.633121 37.865074 34.640831 37.880489 34.656246 37.895912 C 34.687073 37.934452 34.725613 37.973 34.756443 38.011543 C 34.771858 38.026962 34.779568 38.042377 34.794979 38.057796 C 34.887474 38.158012 34.979961 38.250519 35.080166 38.343025 C 35.095581 38.358444 35.110996 38.366158 35.126411 38.381573 C 35.164951 38.412411 35.203491 38.450958 35.242027 38.481796 C 35.257442 38.497208 35.272861 38.504921 35.288277 38.52034 C 35.342228 38.566593 35.388477 38.605141 35.442432 38.643684 C 35.450138 38.643684 35.450138 38.651394 35.457848 38.651394 C 35.504093 38.689938 35.558048 38.728485 35.604298 38.759323 C 35.619713 38.774742 35.635128 38.782448 35.650543 38.797867 C 35.689083 38.828705 35.735332 38.851833 35.773869 38.882668 C 35.789284 38.890381 35.804703 38.9058 35.820114 38.913509 C 35.874073 38.952053 35.935738 38.982895 35.989689 39.021439 C 35.997398 39.029148 36.005108 39.029148 36.012814 39.036858 C 36.066772 39.067696 36.113018 39.090824 36.166973 39.121662 C 36.182388 39.129372 36.205513 39.137081 36.220932 39.1525 C 36.267178 39.175629 36.313423 39.198757 36.359673 39.221886 C 36.367382 39.229595 36.382801 39.229599 36.390507 39.237305 L 33.491928 42.119976 Z M 37.500568 38.497398 C 37.153702 38.397163 36.822254 38.258385 36.521645 38.081066 C 36.42144 38.0271 36.328945 37.965424 36.23645 37.896042 C 36.151665 37.842075 36.074585 37.780403 35.997509 37.711025 C 35.889603 37.626221 35.781693 37.533714 35.689201 37.433495 C 35.195908 36.940125 34.818256 36.315712 34.625607 35.621948 C 34.525425 35.259644 34.4715 34.881935 34.471535 34.504227 C 34.471725 32.222561 36.32959 30.357302 38.611256 30.357494 C 38.688343 30.3575 38.765423 30.357508 38.850216 30.365219 C 38.942715 30.372936 39.027504 30.380653 39.120003 30.388369 C 39.574791 30.442364 40.006447 30.573444 40.42268 30.773897 C 41.864079 31.475479 42.758125 32.901596 42.757988 34.504929 C 42.757957 34.882637 42.703964 35.260338 42.603729 35.622623 C 42.580593 35.707413 42.549755 35.792202 42.526623 35.876991 C 42.464943 36.04657 42.395554 36.208435 42.318459 36.370308 C 42.279907 36.447388 42.23365 36.524467 42.187397 36.601547 C 42.010078 36.902153 41.79422 37.187347 41.539829 37.43399 C 41.046452 37.93499 40.429752 38.304939 39.735985 38.497589 C 39.011387 38.697945 38.225132 38.697876 37.500568 38.497398 Z M 44.391708 39.792984 C 44.129623 39.816082 43.921482 40.024193 43.898338 40.286274 L 43.744015 42.120842 L 40.85363 39.229973 C 40.86134 39.222267 40.876759 39.214561 40.884464 39.214561 C 40.930717 39.191441 40.976974 39.16832 41.023224 39.145195 C 41.038643 39.137489 41.061764 39.129784 41.077183 39.114368 C 41.131145 39.083542 41.177399 39.060417 41.231354 39.029591 C 41.239067 39.021881 41.246773 39.021885 41.254482 39.014175 C 41.316154 38.983349 41.370117 38.944809 41.42408 38.906273 C 41.439495 38.898567 41.454914 38.883148 41.470329 38.875443 C 41.516582 38.844612 41.555122 38.821495 41.59367 38.790665 C 41.609085 38.782955 41.624504 38.76754 41.639919 38.759834 C 41.693882 38.721298 41.740135 38.682758 41.794098 38.644222 C 41.794098 38.644222 41.801807 38.636513 41.801807 38.636513 C 41.855766 38.597977 41.909729 38.551731 41.955986 38.513191 C 41.971405 38.497776 41.98682 38.49007 42.002239 38.474655 C 42.040783 38.443825 42.07933 38.405289 42.11787 38.374458 C 42.133286 38.359039 42.148705 38.351334 42.164127 38.335918 C 42.210377 38.289673 42.264339 38.243427 42.310593 38.197182 C 42.310593 38.197182 42.310593 38.197182 42.310593 38.197182 C 42.35685 38.150932 42.403099 38.104691 42.449356 38.050735 C 42.464775 38.035316 42.472485 38.019905 42.487904 38.004486 C 42.518738 37.96595 42.557281 37.927406 42.588116 37.89658 C 42.603539 37.881165 42.611244 37.865749 42.626667 37.850334 C 42.67292 37.796379 42.711464 37.75013 42.750011 37.696175 C 42.757721 37.688469 42.757721 37.688469 42.765427 37.680763 C 42.803974 37.634514 42.834812 37.588264 42.87336 37.534309 C 42.888775 37.518898 42.896488 37.495773 42.911903 37.480358 C 42.942741 37.441818 42.96587 37.403278 42.996704 37.357033 C 43.004417 37.341614 43.019833 37.326202 43.027546 37.303078 C 43.06609 37.249119 43.096931 37.195164 43.127769 37.133499 C 43.135475 37.125793 43.143185 37.110374 43.143185 37.102669 C 43.174026 37.056423 43.197155 37.010174 43.220284 36.956215 C 43.227993 36.93309 43.243412 36.917679 43.251122 36.894554 C 43.27425 36.848305 43.297379 36.809761 43.312801 36.763515 C 43.320511 36.7481 43.328217 36.740395 43.328217 36.724976 L 46.218601 39.615845 L 44.391708 39.792984 Z"/>
        <path id="path6" fill="#ffffff" stroke="none" d="M 40.345207 35.383472 C 40.345264 34.689724 39.921345 34.288857 38.934696 34.042107 L 38.934803 32.79335 C 39.158337 32.847332 39.374165 32.93985 39.6054 33.078621 C 39.667065 33.117165 39.736439 33.140297 39.798103 33.140297 C 39.998524 33.14032 40.160408 32.986164 40.160427 32.785751 C 40.160439 32.631584 40.067947 32.531364 39.967747 32.477402 C 39.667133 32.292374 39.343395 32.169014 38.957981 32.122734 L 38.957996 31.976274 C 38.958004 31.822105 38.834686 31.698761 38.680519 31.69875 C 38.526352 31.698736 38.395302 31.82206 38.395287 31.976225 L 38.395271 32.114975 C 37.585892 32.176575 37.030853 32.662148 37.030796 33.355904 C 37.030735 34.088196 37.470078 34.450523 38.418182 34.697266 L 38.418072 35.976852 C 38.063496 35.915154 37.762882 35.760963 37.454567 35.545105 C 37.392906 35.498848 37.315826 35.475716 37.238743 35.475708 C 37.038322 35.475693 36.884144 35.629848 36.884129 35.830265 C 36.884117 35.969013 36.945774 36.069225 37.061394 36.138611 C 37.454494 36.416145 37.909271 36.593475 38.394894 36.647476 L 38.394859 37.048309 C 38.394844 37.202477 38.525875 37.325821 38.680042 37.325832 C 38.834206 37.325844 38.957554 37.202522 38.957565 37.048355 L 38.957603 36.655228 C 39.790108 36.570511 40.345146 36.100349 40.345207 35.383472 Z M 38.425957 33.911018 C 37.924927 33.749104 37.801609 33.579506 37.801632 33.309715 C 37.801655 33.024506 38.0098 32.800983 38.426052 32.762478 L 38.425957 33.911018 Z M 38.934528 35.99231 L 38.934628 34.812935 C 39.435658 34.967148 39.574394 35.144447 39.574368 35.429657 C 39.58205 35.745701 39.35078 35.946098 38.934528 35.99231 Z"/>
    </g>
</svg>
