<?xml version="1.0" encoding="UTF-8"?>
<!-- Generated by Pixelmator Pro 3.7.1 -->
<svg width="54" height="54" viewBox="0 0 54 54" xmlns="http://www.w3.org/2000/svg">
    <path id="Path" fill="#007a4d" stroke="none" d="M 38.5714 0 L 15.4286 0 C 6.90761 0 0 6.907608 0 15.4286 L 0 38.5714 C 0 47.0924 6.90761 54 15.4286 54 L 38.5714 54 C 47.0924 54 54 47.0924 54 38.5714 L 54 15.4286 C 54 6.907608 47.0924 0 38.5714 0 Z"/>
    <g id="dollar-finance-money-3-svgrepo-com">
        <path id="path1" fill="#ffffff" stroke="none" d="M 10.985975 35.987129 L 22.127113 35.988068 C 22.310759 35.988083 22.479107 35.896275 22.578594 35.743248 C 22.678082 35.590218 22.693403 35.398922 22.609245 35.230572 L 21.079147 31.940132 C 20.994995 31.748829 20.803707 31.634035 20.597105 31.634016 L 19.847221 31.633953 L 17.667316 21.211906 C 18.447836 20.882942 19.052391 20.224934 19.30497 19.421509 L 23.873245 18.197594 L 24.990421 18.197685 L 24.98917 32.981117 L 24.399977 32.981071 C 24.101553 32.981045 23.864325 33.218235 23.864298 33.516659 L 23.863874 38.543945 L 23.045124 38.543877 C 22.815567 38.543854 22.608953 38.68922 22.540068 38.911121 L 21.00931 43.425602 C 20.955732 43.586288 20.978674 43.769932 21.078138 43.907677 C 21.177599 44.045418 21.338282 44.129601 21.514275 44.129616 L 32.663063 44.130558 C 32.839058 44.130573 32.999756 44.046417 33.099239 43.908691 C 33.198727 43.770966 33.229347 43.587322 33.168148 43.426628 L 31.638151 38.911888 C 31.561651 38.697632 31.362717 38.544579 31.133162 38.544556 L 30.314407 38.544487 L 30.314833 33.517204 C 30.314857 33.218781 30.077671 32.981552 29.779249 32.981525 L 29.190052 32.981476 L 29.191301 18.182735 L 30.606901 18.182858 C 30.905327 18.18288 31.142551 17.945694 31.142576 17.64727 L 31.142694 16.23167 L 35.680363 15.015404 C 35.955814 15.267944 36.277172 15.466919 36.62915 15.597031 L 34.891296 25.972834 C 34.807117 26.01874 34.722946 26.064644 34.638771 26.110546 C 33.314934 26.875622 32.350693 28.099844 31.906759 29.553661 C 31.738371 30.112236 31.65415 30.693771 31.654102 31.282969 C 31.654093 31.397745 31.654083 31.504871 31.661726 31.604345 C 31.776316 33.846359 33.130531 35.813004 35.18116 36.7314 C 35.953968 37.075806 36.772705 37.251869 37.622063 37.251938 C 38.471424 37.25201 39.29784 37.076088 40.063057 36.731812 C 42.205666 35.76786 43.590836 33.633102 43.591034 31.283976 C 43.591198 29.371006 42.66547 27.565084 41.119884 26.440125 L 41.119884 26.440125 C 40.875042 26.264111 40.622543 26.111053 40.362392 25.973297 L 38.626293 15.589546 C 39.559849 15.245293 40.263889 14.43425 40.455273 13.447174 C 40.455273 13.439522 40.462925 13.424217 40.462925 13.416569 C 40.539482 12.988071 40.524216 12.559563 40.417122 12.138699 C 40.30238 11.717834 40.103462 11.335228 39.820374 11.006172 C 39.101166 10.172054 37.953411 9.812321 36.882126 10.095348 C 35.93327 10.347782 35.175674 11.082298 34.884827 12.008152 L 30.316547 13.232067 L 29.199373 13.231968 L 29.19945 12.344353 C 29.199547 11.181271 28.258446 10.240005 27.09536 10.23991 C 25.932274 10.239811 24.991013 11.180912 24.990915 12.343998 L 24.990839 13.246918 L 23.575241 13.246799 C 23.276817 13.246777 23.039589 13.483963 23.039562 13.782387 L 23.039444 15.197987 L 18.501776 16.414249 C 17.782555 15.756126 16.764875 15.503532 15.80837 15.755962 C 14.744736 16.038986 13.925908 16.926537 13.719215 18.005436 C 13.635009 18.433937 13.65793 18.862442 13.765018 19.283306 C 13.879762 19.70417 14.078679 20.086777 14.36177 20.415833 C 14.652513 20.760193 15.027432 21.028042 15.448272 21.204067 L 13.266604 31.62575 L 12.51672 31.625687 C 12.310119 31.625668 12.118813 31.748079 12.034625 31.931719 L 10.503971 35.221897 C 10.427438 35.390232 10.442726 35.581528 10.534536 35.734573 C 10.633997 35.887619 10.802331 35.98711 10.985975 35.987129 Z M 31.920925 43.036278 L 22.264252 43.035461 L 23.435282 39.592213 L 24.399416 39.592297 L 29.778688 39.592751 L 30.742825 39.592831 L 31.920925 43.036278 Z M 29.250801 38.521442 L 24.942791 38.521076 L 24.943172 34.029427 L 25.532366 34.029472 L 28.669636 34.029739 L 29.258833 34.029785 L 29.258453 38.521442 Z M 28.126444 32.966084 L 26.060436 32.965908 L 26.061684 18.182476 L 28.127693 18.182648 L 28.126444 32.966084 Z M 31.150528 14.135056 L 34.762299 13.171227 C 34.777588 13.331917 34.808178 13.484955 34.846428 13.645649 C 34.88467 13.798691 34.945877 13.951733 35.00708 14.097126 L 31.150444 15.12215 L 31.150528 14.135056 Z M 39.206993 25.521738 C 39.038654 25.475813 38.870316 25.43754 38.701977 25.406918 C 37.982716 25.276773 37.202221 25.284361 36.490585 25.422035 C 36.345196 25.452629 36.207462 25.483225 36.069721 25.521473 L 37.646805 16.132751 L 39.206993 25.521738 Z M 40.500011 27.312387 C 41.770145 28.230719 42.53521 29.71525 42.535076 31.283888 C 42.534912 33.212158 41.394634 34.96434 39.642288 35.752342 C 39.014809 36.035408 38.341434 36.180737 37.637459 36.180676 C 36.941139 36.180618 36.260132 36.035172 35.632702 35.752003 C 33.949352 34.994324 32.839966 33.379681 32.748299 31.543224 C 32.740654 31.459053 32.740662 31.37488 32.740669 31.283058 C 32.740707 30.800991 32.809616 30.318926 32.947392 29.867477 C 33.307129 28.673815 34.103008 27.671484 35.189629 27.044123 C 35.32737 26.967617 35.472763 26.891109 35.610497 26.829906 C 35.954849 26.669245 36.322147 26.554499 36.697098 26.485662 C 37.003178 26.424473 37.31691 26.393892 37.638287 26.393921 C 37.93671 26.393946 38.227478 26.416925 38.510593 26.470512 C 38.908485 26.539413 39.298721 26.661877 39.666 26.830248 C 39.95676 26.960354 40.232212 27.121067 40.500011 27.312387 L 40.500011 27.312387 Z M 37.165157 11.143684 C 37.318199 11.105434 37.471241 11.082493 37.631927 11.082508 C 38.152256 11.08255 38.664913 11.312145 39.009212 11.717728 C 39.185188 11.924343 39.307598 12.16156 39.384094 12.429382 C 39.452942 12.689552 39.468224 12.949718 39.422287 13.209877 C 39.422287 13.217533 39.422287 13.225182 39.414631 13.232834 C 39.284496 13.913841 38.77177 14.472382 38.106041 14.648319 C 38.052479 14.66362 37.998917 14.671268 37.937698 14.686565 C 37.738747 14.717159 37.539799 14.71714 37.340851 14.68652 C 36.920002 14.617615 36.545082 14.403328 36.26199 14.074272 C 36.08601 13.867657 35.955948 13.63044 35.887104 13.362617 C 35.81826 13.094795 35.802979 12.826981 35.856567 12.55917 C 35.979053 11.878162 36.491779 11.319614 37.165157 11.143684 Z M 26.06218 12.34409 C 26.062225 11.777851 26.52903 11.311127 27.09527 11.311172 C 27.661507 11.311218 28.128235 11.778023 28.128185 12.344261 L 28.128111 13.247185 L 26.062101 13.247009 L 26.06218 12.34409 Z M 24.110783 14.318108 L 25.526379 14.31823 L 28.663652 14.318497 L 30.079248 14.318611 L 30.079123 15.818382 L 30.079012 17.111549 L 28.663416 17.111431 L 25.526144 17.111164 L 24.110546 17.111042 L 24.110672 15.611279 L 24.110783 14.318108 Z M 23.039351 16.307507 L 23.039267 17.294598 L 19.427498 18.25843 C 19.419851 18.212521 19.419853 18.166607 19.412207 18.120697 C 19.412207 18.105392 19.404556 18.090088 19.404556 18.082436 C 19.396908 18.044174 19.389259 18.013569 19.381611 17.975307 C 19.381613 17.960003 19.373962 17.944698 19.373964 17.929394 C 19.366314 17.883484 19.351015 17.83757 19.343369 17.784008 C 19.328068 17.738094 19.312767 17.692181 19.30512 17.646271 C 19.29747 17.630966 19.29747 17.615662 19.289818 17.608009 C 19.274519 17.5774 19.26687 17.539143 19.251566 17.508533 C 19.243916 17.493229 19.243919 17.485573 19.236267 17.470268 C 19.220966 17.424355 19.198015 17.386097 19.182714 17.340183 L 23.039351 16.307507 Z M 15.180581 19.719582 C 15.004604 19.512966 14.882195 19.275745 14.805699 19.007927 C 14.736855 18.740101 14.721574 18.472286 14.77516 18.204472 C 14.905298 17.523468 15.418022 16.964924 16.08375 16.788986 C 16.236792 16.75074 16.389832 16.727795 16.55052 16.72781 C 17.070848 16.727856 17.583506 16.957455 17.927807 17.363037 C 17.927807 17.363037 17.935457 17.370686 17.935457 17.370686 C 17.950758 17.38599 17.958408 17.401295 17.966061 17.408951 C 17.973711 17.424255 17.989012 17.431908 17.996664 17.447212 C 18.004316 17.462517 18.019619 17.477821 18.027269 17.493126 C 18.034918 17.50843 18.04257 17.516079 18.05022 17.531384 C 18.057871 17.546688 18.073175 17.561993 18.080824 17.577301 C 18.088474 17.592606 18.096127 17.600258 18.103777 17.615562 C 18.111427 17.630863 18.11908 17.646168 18.126728 17.661472 C 18.134378 17.676777 18.142031 17.684433 18.149681 17.699738 C 18.157333 17.715042 18.164982 17.730347 18.172632 17.7533 C 18.180283 17.768604 18.187935 17.77626 18.187931 17.791565 C 18.195583 17.806866 18.203234 17.829823 18.210884 17.845127 C 18.218534 17.860432 18.218534 17.868084 18.226183 17.883389 C 18.233835 17.906345 18.241484 17.929298 18.249136 17.944603 C 18.249136 17.952255 18.256784 17.96756 18.256783 17.975212 C 18.264433 18.005821 18.279736 18.036427 18.287382 18.074692 C 18.295033 18.105297 18.302683 18.143559 18.310331 18.174168 C 18.310329 18.189472 18.317982 18.197121 18.31798 18.212425 C 18.325628 18.235382 18.325626 18.250683 18.325626 18.273643 C 18.325624 18.288944 18.325623 18.304249 18.333273 18.319553 C 18.333273 18.334858 18.340921 18.357815 18.340921 18.373119 C 18.340919 18.38842 18.340919 18.403725 18.340918 18.419029 C 18.340918 18.434334 18.340916 18.457287 18.340912 18.472591 C 18.340912 18.487896 18.34091 18.503201 18.340908 18.518505 C 18.340908 18.53381 18.340906 18.549114 18.340906 18.572067 C 18.340902 18.587372 18.3409 18.602676 18.3409 18.617973 C 18.340899 18.633278 18.340899 18.648582 18.340897 18.671543 C 18.340895 18.686844 18.340895 18.702148 18.333239 18.717453 C 18.333239 18.732754 18.333237 18.755711 18.325584 18.771015 C 18.325583 18.78632 18.31793 18.801624 18.317928 18.816921 C 18.317926 18.832226 18.310274 18.84753 18.310274 18.870487 C 18.31027 18.878139 18.31027 18.878139 18.31027 18.885788 C 18.18013 19.566799 17.667408 20.12534 16.994026 20.301277 C 16.963421 20.308926 16.932812 20.316578 16.902203 20.324226 C 16.657337 20.377766 16.404827 20.377747 16.159971 20.324162 C 15.80034 20.232307 15.440721 20.018028 15.180581 19.719582 Z M 16.504211 21.418411 C 16.519516 21.418411 16.542473 21.418411 16.557775 21.418415 C 16.580732 21.418415 16.596037 21.418415 16.61899 21.418423 L 18.753004 31.618559 L 14.360823 31.618187 L 16.504211 21.418411 Z M 12.853313 32.696976 L 13.695021 32.697044 C 13.695021 32.697044 13.695021 32.697044 13.695021 32.697044 L 13.695021 32.697044 L 19.403322 32.697529 C 19.403322 32.697529 19.403322 32.697529 19.403322 32.697529 C 19.403322 32.697529 19.403322 32.697529 19.403322 32.697529 L 20.245029 32.697601 L 21.277845 34.916733 L 11.827773 34.915932 L 12.853313 32.696976 Z"/>
        <path id="path2" fill="#ffffff" stroke="none" d="M 37.630543 27.465181 C 36.30677 27.465069 35.090061 28.138332 34.393646 29.2631 C 34.385998 29.270752 34.378342 29.286055 34.370686 29.293709 C 34.31712 29.377871 34.263546 29.46969 34.217628 29.561512 C 33.949768 30.09712 33.811981 30.671 33.811935 31.275497 C 33.81192 31.390276 33.819569 31.497402 33.827213 31.589226 C 33.926586 32.790581 34.599857 33.892506 35.632805 34.527702 C 36.229622 34.895039 36.918274 35.094048 37.629898 35.094109 C 39.734169 35.094284 41.440681 33.380409 41.440857 31.283794 C 41.440907 30.725206 41.326172 30.189564 41.089008 29.684519 C 41.027805 29.546782 40.958946 29.424347 40.882439 29.301907 C 40.874786 29.286606 40.867138 29.278954 40.859482 29.271297 C 40.346878 28.452505 39.558784 27.863243 38.625275 27.602999 C 38.311558 27.511152 37.97488 27.465212 37.630543 27.465181 Z M 39.956516 29.829811 C 39.956516 29.837461 39.964169 29.845114 39.971817 29.852768 C 40.025375 29.936943 40.07893 30.036421 40.124832 30.1359 C 40.293144 30.495552 40.377281 30.878153 40.377243 31.283705 C 40.377117 32.798775 39.145065 34.022972 37.637642 34.022842 C 37.132618 34.022804 36.635258 33.885029 36.206776 33.617176 C 35.464584 33.158001 34.974926 32.369812 34.906136 31.497492 C 34.898491 31.428625 34.898495 31.35976 34.898499 31.275589 C 34.898537 30.839432 34.998043 30.426239 35.189373 30.043659 C 35.227642 29.974798 35.258255 29.905935 35.304169 29.844723 C 35.311825 29.837067 35.311825 29.82942 35.319477 29.821768 C 35.82457 29.01071 36.696922 28.536366 37.64576 28.536448 C 37.890614 28.536469 38.135475 28.567097 38.372677 28.635983 C 39.023071 28.819685 39.589272 29.240585 39.956516 29.829811 Z"/>
        <path id="path3" fill="#ffffff" stroke="none" d="M 37.928833 29.095058 C 37.928841 28.957323 37.821724 28.85784 37.68399 28.857828 C 37.546257 28.857817 37.439121 28.964935 37.43911 29.095018 L 37.439102 29.209797 C 37.217194 29.22508 37.018238 29.278625 36.849892 29.362783 C 36.643284 29.469891 36.474926 29.615265 36.375439 29.798901 C 36.298904 29.936628 36.260632 30.097317 36.26062 30.273308 C 36.260597 30.533472 36.321796 30.732426 36.451866 30.90078 C 36.643139 31.145653 36.972157 31.306372 37.461868 31.428843 L 37.461777 32.530716 C 37.155704 32.477123 36.895554 32.347019 36.635403 32.155701 C 36.581844 32.117439 36.52063 32.094475 36.451763 32.094467 C 36.275768 32.094452 36.145676 32.232178 36.14566 32.40052 C 36.145653 32.515297 36.199207 32.607124 36.298676 32.66835 C 36.64299 32.905586 37.02557 33.058655 37.446419 33.104607 L 37.446392 33.448936 C 37.446384 33.58667 37.56115 33.686157 37.691235 33.686165 C 37.828968 33.68618 37.936104 33.579063 37.936111 33.448982 L 37.936142 33.112297 C 38.647774 33.043491 39.129875 32.637978 39.129929 32.018177 C 39.12994 31.834534 39.091698 31.67384 39.022842 31.5361 C 38.862179 31.222359 38.502556 31.015732 37.91338 30.870291 L 37.913467 29.799028 C 38.104759 29.844957 38.296047 29.929146 38.487335 30.04394 C 38.540897 30.074551 38.602112 30.097511 38.655674 30.097517 C 38.831669 30.097532 38.96941 29.959808 38.969425 29.79147 C 38.96944 29.653734 38.892925 29.577208 38.801105 29.523638 C 38.540958 29.362926 38.265499 29.255777 37.936474 29.217491 L 37.936481 29.09506 Z M 37.461926 30.770781 C 37.377754 30.740168 37.301235 30.717203 37.240025 30.686592 L 37.240025 30.686592 C 36.995178 30.571793 36.926319 30.441706 36.926338 30.250408 C 36.926357 30.005548 37.102364 29.814264 37.462006 29.783689 L 37.461926 30.770781 Z M 37.928623 31.551315 C 38.33416 31.681429 38.456577 31.834475 38.456558 32.071686 C 38.456535 32.3395 38.257568 32.515472 37.905579 32.561356 L 37.905666 31.543657 C 37.913319 31.551311 37.920971 31.551311 37.928623 31.551315 Z"/>
    </g>
</svg>
