<?xml version="1.0" encoding="UTF-8"?>
<!-- Generated by Pixelmator Pro 3.7.1 -->
<svg width="54" height="54" viewBox="0 0 54 54" xmlns="http://www.w3.org/2000/svg">
    <path id="Path" fill="#007a4d" stroke="none" d="M 38.5714 0 L 15.4286 0 C 6.90761 0 0 6.907608 0 15.4286 L 0 38.5714 C 0 47.0924 6.90761 54 15.4286 54 L 38.5714 54 C 47.0924 54 54 47.0924 54 38.5714 L 54 15.4286 C 54 6.907608 47.0924 0 38.5714 0 Z"/>
    <g id="dollar-finance-money-36-svgrepo-com">
        <path id="path1" fill="#ffffff" stroke="none" d="M 11.239787 25.727842 L 32.582241 25.729647 C 33.790302 25.729748 34.773872 24.746344 34.773975 23.53828 L 34.774086 22.237288 L 34.774334 19.279083 L 34.77486 13.060658 C 34.774963 11.852592 33.791557 10.869022 32.583496 10.868919 L 11.241042 10.867115 C 10.032979 10.867012 9.049408 11.850418 9.049307 13.058479 L 9.04878 19.276909 L 9.048532 22.235115 L 9.048421 23.536106 C 9.048319 24.744171 10.031723 25.727741 11.239787 25.727842 Z M 32.582333 24.645487 L 11.239878 24.643682 C 10.628103 24.643631 10.132529 24.147972 10.13258 23.536198 L 10.132645 22.777287 L 33.697624 22.779278 L 33.697559 23.538189 C 33.697506 24.149965 33.194107 24.645538 32.582333 24.645487 Z M 10.132895 19.81908 L 33.697876 19.821072 L 33.697716 21.695118 L 10.132735 21.693123 L 10.132895 19.81908 Z M 11.240951 11.951275 L 32.583405 11.953075 C 33.195179 11.953129 33.690754 12.448788 33.690701 13.060562 L 33.690224 18.736912 L 10.132986 18.734921 L 10.133466 13.058571 C 10.133518 12.446796 10.629175 11.951221 11.240951 11.951275 Z"/>
        <path id="path2" fill="#ffffff" stroke="none" d="M 14.129028 17.078041 C 14.500741 17.078075 14.864716 16.977436 15.182234 16.799347 C 15.499722 16.985233 15.863683 17.07819 16.235395 17.07822 C 17.396992 17.07832 18.349586 16.133633 18.349686 14.964291 C 18.349783 13.802689 17.405096 12.850098 16.235752 12.849998 C 15.864039 12.849968 15.500065 12.950607 15.182546 13.128696 C 14.865058 12.942814 14.501097 12.849854 14.129385 12.849819 C 12.967785 12.84972 12.015195 13.794411 12.015096 14.963753 C 12.014997 16.133095 12.959684 17.077942 14.129028 17.078041 Z M 14.129292 13.941727 C 14.384846 13.941746 14.624902 14.034695 14.818486 14.205078 C 15.027558 14.390953 15.337318 14.39098 15.546422 14.205139 C 15.732292 14.03479 15.980107 13.941883 16.235659 13.941902 C 16.800972 13.941952 17.265574 14.398888 17.265524 14.971943 C 17.265476 15.544998 16.808542 16.001858 16.235485 16.001804 C 15.979935 16.001785 15.739878 15.908836 15.546291 15.738449 C 15.445628 15.645515 15.313984 15.599037 15.182336 15.59903 C 15.050688 15.599014 14.919037 15.645473 14.818357 15.738388 C 14.632485 15.908741 14.38467 16.001648 14.129118 16.001629 C 13.563808 16.001583 13.099207 15.544643 13.099254 14.971588 C 13.099303 14.398533 13.556238 13.941673 14.129292 13.941727 Z"/>
        <path id="path3" fill="#ffffff" stroke="none" d="M 22.074501 15.506683 L 23.685251 15.506821 C 23.987268 15.506844 24.22735 15.2668 24.227377 14.964787 C 24.227402 14.662769 23.98736 14.422684 23.685345 14.422661 L 22.074591 14.422523 C 21.772575 14.422501 21.532494 14.662544 21.532467 14.964558 C 21.53244 15.266575 21.772486 15.50666 22.074501 15.506683 Z"/>
        <path id="path4" fill="#ffffff" stroke="none" d="M 25.799362 15.507 L 27.410116 15.507133 C 27.71213 15.50716 27.952213 15.267117 27.95224 14.965103 C 27.952267 14.663086 27.712221 14.423 27.410208 14.422974 L 25.799456 14.42284 C 25.497438 14.422813 25.257355 14.662853 25.257328 14.96487 C 25.257301 15.266888 25.505091 15.506973 25.799362 15.507 Z"/>
        <path id="path5" fill="#ffffff" stroke="none" d="M 29.531969 15.507313 L 31.142719 15.507446 C 31.444735 15.507477 31.68482 15.267433 31.684845 14.96542 C 31.684872 14.663403 31.444826 14.423317 31.142811 14.42329 L 29.532061 14.423153 C 29.230047 14.42313 28.98996 14.66317 28.989933 14.965187 C 28.98991 15.267204 29.229956 15.507286 29.531969 15.507313 Z"/>
        <path id="path6" fill="#ffffff" stroke="none" d="M 44.221176 29.168964 L 19.943748 29.166914 C 19.641733 29.166887 19.401648 29.406929 19.401621 29.708948 L 19.400524 42.711113 C 19.400497 43.01313 19.640541 43.253216 19.942556 43.253242 L 44.212238 43.255291 C 44.514256 43.255318 44.754341 43.015274 44.754368 42.713257 L 44.755463 29.711092 C 44.763233 29.409073 44.515446 29.168991 44.221176 29.168964 Z M 43.677998 42.171085 L 20.484728 42.169128 L 20.485735 30.25112 L 43.671261 30.253078 L 43.67025 42.171085 Z"/>
        <path id="path7" fill="#ffffff" stroke="none" d="M 22.436504 38.746445 L 22.877913 38.746483 C 23.605848 38.746544 24.202085 39.342884 24.202024 40.07082 L 24.201986 40.51223 C 24.20196 40.81424 24.442005 41.054325 24.74402 41.054352 L 39.426636 41.055595 C 39.728649 41.055618 39.968735 40.815575 39.968761 40.513557 L 39.968796 40.072151 C 39.968857 39.344215 40.565201 38.747978 41.293137 38.748039 L 41.734539 38.748077 C 42.036556 38.7481 42.276642 38.508057 42.276669 38.206039 L 42.277004 34.217884 C 42.277027 33.915871 42.036983 33.675785 41.73497 33.675758 L 41.29356 33.67572 C 40.790203 33.675678 40.333328 33.396858 40.108795 32.939941 C 40.015881 32.754078 39.969433 32.552734 39.969452 32.351387 L 39.96949 31.909979 C 39.969517 31.607965 39.729473 31.36788 39.427456 31.367853 L 24.744839 31.366613 C 24.442822 31.366587 24.20274 31.606632 24.202713 31.908648 L 24.202675 32.350052 C 24.202635 32.837925 23.939301 33.279312 23.505617 33.511597 C 23.31201 33.619995 23.095173 33.674187 22.870598 33.674164 L 22.429188 33.674126 C 22.127172 33.674103 21.887091 33.914146 21.887064 34.21616 L 21.886726 38.204319 C 21.894445 38.506332 22.134487 38.746418 22.436504 38.746445 Z M 22.97892 34.758331 C 23.342892 34.742874 23.706865 34.642235 24.024384 34.471893 C 24.767843 34.061523 25.248035 33.302654 25.279083 32.458565 L 38.877537 32.459713 C 38.892998 32.800446 38.978153 33.133446 39.133007 33.435471 C 39.527885 34.225395 40.309986 34.728821 41.185055 34.767616 L 41.184811 37.679359 C 39.938023 37.733459 38.931217 38.740097 38.8769 39.986874 L 25.278446 39.985725 C 25.224344 38.738937 24.217709 37.732132 22.97093 37.677818 L 22.971176 34.758331 Z"/>
        <path id="path8" fill="#ffffff" stroke="none" d="M 25.859446 37.631599 C 26.084011 37.74778 26.339556 37.809753 26.595112 37.809772 C 27.160421 37.809822 27.679295 37.515594 27.965862 37.027748 C 27.973608 37.020004 27.973608 37.01226 27.981352 37.004513 C 28.120764 36.764462 28.198229 36.485687 28.198252 36.206902 C 28.198328 35.324089 27.478195 34.603832 26.595383 34.60376 C 25.712566 34.603683 24.992313 35.323814 24.992237 36.206631 C 24.992186 36.810661 25.325134 37.352768 25.859446 37.631599 Z M 26.595289 35.695663 C 26.881815 35.695686 27.114117 35.928024 27.114092 36.214554 C 27.114086 36.299736 27.090845 36.384918 27.05212 36.454613 C 27.05212 36.462357 27.044374 36.462357 27.044374 36.4701 C 26.951431 36.632717 26.781057 36.725632 26.595203 36.725613 C 26.510015 36.725605 26.432577 36.710114 26.355143 36.663643 C 26.184782 36.578445 26.07638 36.400322 26.076397 36.206726 C 26.07642 35.92794 26.308762 35.695637 26.595289 35.695663 Z"/>
        <path id="path9" fill="#ffffff" stroke="none" d="M 37.963291 37.864944 C 38.877079 37.865021 39.620571 37.121658 39.620647 36.20787 C 39.62072 35.294075 38.877365 34.550591 37.96357 34.550514 C 37.049778 34.550434 36.306293 35.293793 36.306213 36.207588 C 36.306137 37.121376 37.0495 37.864864 37.963291 37.864944 Z M 37.963478 35.642414 C 38.280983 35.642441 38.53651 35.898018 38.536488 36.215523 C 38.536457 36.53302 38.280884 36.788551 37.963379 36.788528 C 37.645878 36.788502 37.39035 36.532928 37.390373 36.215424 C 37.3904 35.897919 37.645977 35.642387 37.963478 35.642414 Z"/>
        <path id="path10" fill="#ffffff" stroke="none" d="M 30.48259 37.887543 C 30.893 38.174103 31.357622 38.360001 31.860977 38.414249 L 31.860941 38.832424 C 31.860928 38.995052 31.992563 39.118965 32.155186 39.11898 C 32.317814 39.118992 32.441727 38.995102 32.441742 38.832474 L 32.441772 38.429787 C 33.293617 38.352417 33.866718 37.85685 33.866779 37.12117 C 33.866844 36.400982 33.433212 35.990509 32.411026 35.742619 L 32.411133 34.457115 C 32.635704 34.511345 32.868015 34.612034 33.100323 34.751442 C 33.170017 34.790169 33.231964 34.813408 33.301662 34.813416 C 33.51075 34.813431 33.681129 34.650826 33.681149 34.441734 C 33.681164 34.27911 33.588245 34.178429 33.479836 34.11647 C 33.170094 33.922844 32.837109 33.791168 32.442169 33.744667 L 32.442181 33.597534 C 32.442196 33.43491 32.310558 33.310997 32.155678 33.310982 C 32.000801 33.31097 31.861397 33.43486 31.861383 33.597485 L 31.861372 33.736877 C 31.025013 33.806503 30.451916 34.302071 30.451855 35.014519 C 30.451828 35.32428 30.529247 35.564346 30.684113 35.765705 C 30.908665 36.05225 31.303591 36.245884 31.892122 36.400814 L 31.892012 37.725037 C 31.520304 37.655308 31.218302 37.500404 30.900814 37.275803 C 30.838869 37.229332 30.761431 37.206093 30.676247 37.206085 C 30.467159 37.20607 30.304522 37.368679 30.304502 37.577766 C 30.296747 37.709415 30.366436 37.810089 30.48259 37.887543 Z M 32.410957 36.524761 C 32.929794 36.687431 33.076916 36.865555 33.076893 37.159824 C 33.076862 37.485073 32.844524 37.694141 32.410854 37.74057 L 32.410957 36.524761 Z M 31.613415 35.487 C 31.613415 35.487 31.613415 35.487 31.613415 35.487 C 31.319157 35.347584 31.233984 35.192696 31.234003 34.968117 C 31.23403 34.673843 31.450878 34.449287 31.876802 34.402863 L 31.876701 35.587692 C 31.776033 35.556709 31.690853 35.525726 31.613415 35.487 Z"/>
        <path id="path11" fill="#ffffff" stroke="none" d="M 38.956249 17.3899 C 40.605724 17.390041 41.953064 18.729866 41.952923 20.387077 L 41.952625 23.93383 L 41.139572 23.167107 C 40.922756 22.965744 40.58202 22.973459 40.372913 23.190273 C 40.171551 23.407087 40.179264 23.747826 40.39608 23.95693 L 42.122856 25.583317 C 42.122856 25.583317 42.130596 25.591061 42.130596 25.591061 C 42.138344 25.598804 42.138344 25.598804 42.146084 25.598806 C 42.146084 25.598806 42.153828 25.606552 42.153828 25.606552 C 42.161575 25.614296 42.169315 25.614296 42.169315 25.62204 C 42.177059 25.62204 42.177059 25.629784 42.184803 25.629784 C 42.184803 25.629784 42.192547 25.637531 42.192547 25.637531 C 42.200287 25.645275 42.208035 25.645275 42.215778 25.653019 C 42.223518 25.653019 42.223518 25.660765 42.231266 25.660767 C 42.231266 25.660767 42.239006 25.660767 42.239006 25.66851 C 42.24675 25.676254 42.254498 25.676254 42.262238 25.684 C 42.262238 25.684 42.269981 25.684002 42.269981 25.684002 C 42.269981 25.684002 42.277725 25.684002 42.277725 25.684002 C 42.277725 25.684002 42.285469 25.684002 42.285469 25.684002 C 42.293217 25.684002 42.300957 25.691748 42.308701 25.691748 C 42.316444 25.691748 42.316444 25.699493 42.324188 25.699493 C 42.324188 25.699493 42.324188 25.699493 42.324188 25.699493 C 42.324188 25.699493 42.324188 25.699493 42.331936 25.699495 C 42.339676 25.699495 42.34742 25.707239 42.362907 25.707241 C 42.370655 25.707241 42.378395 25.707241 42.386139 25.714985 C 42.386139 25.714985 42.386139 25.714985 42.386139 25.714985 C 42.393883 25.714989 42.409374 25.714989 42.417114 25.722733 C 42.424858 25.722733 42.432602 25.722734 42.432602 25.722734 C 42.432602 25.722734 42.432602 25.722734 42.432602 25.722734 C 42.448093 25.722734 42.463581 25.722736 42.486813 25.72274 C 42.486813 25.72274 42.486813 25.72274 42.486813 25.72274 L 42.486813 25.72274 C 42.486813 25.72274 42.486813 25.72274 42.486813 25.72274 L 42.486813 25.72274 C 42.5023 25.72274 42.517788 25.722742 42.541019 25.722744 C 42.541019 25.722744 42.541019 25.722744 42.541019 25.722744 C 42.548759 25.722744 42.556507 25.722744 42.556507 25.722744 C 42.564251 25.722744 42.579739 25.722746 42.587482 25.715002 C 42.587482 25.715002 42.587482 25.715002 42.587482 25.715002 C 42.595226 25.715004 42.602974 25.715004 42.610714 25.70726 C 42.618462 25.707262 42.626202 25.699518 42.641693 25.69952 C 42.649437 25.69952 42.657181 25.691776 42.664928 25.691778 C 42.672668 25.691778 42.680416 25.684034 42.688156 25.684036 C 42.688156 25.684036 42.6959 25.684036 42.6959 25.684036 C 42.6959 25.684036 42.6959 25.684036 42.6959 25.684036 C 42.6959 25.684036 42.703648 25.684036 42.703648 25.676292 C 42.711391 25.66855 42.719135 25.66855 42.726883 25.660807 C 42.726883 25.660807 42.734623 25.660809 42.734623 25.653065 C 42.742371 25.653065 42.742371 25.645321 42.750111 25.645321 C 42.757858 25.637579 42.765602 25.637579 42.773346 25.629833 C 42.773346 25.629833 42.78109 25.629837 42.78109 25.622091 C 42.788837 25.622091 42.788837 25.614347 42.796577 25.614349 C 42.804325 25.606606 42.812065 25.606606 42.812065 25.598862 C 42.812065 25.598862 42.819813 25.59112 42.819813 25.59112 C 42.827557 25.59112 42.82756 25.583376 42.8353 25.583376 C 42.8353 25.583376 42.843048 25.575634 42.843048 25.575634 L 44.570095 23.949541 C 44.786945 23.748215 44.802464 23.399736 44.593391 23.182886 C 44.384323 22.966036 44.043587 22.95052 43.826736 23.15959 L 43.013554 23.926176 L 43.013851 20.379425 C 43.014042 18.133671 41.186615 16.298187 38.933113 16.297993 C 38.6311 16.29797 38.391014 16.538013 38.390987 16.840031 C 38.390961 17.142044 38.654236 17.389877 38.956249 17.3899 Z"/>
        <path id="path12" fill="#ffffff" stroke="none" d="M 10.774405 34.509495 C 10.774216 36.755257 12.601644 38.590733 14.855147 38.590923 C 15.157163 38.59095 15.397245 38.350906 15.397271 38.048889 C 15.397298 37.746876 15.157252 37.50679 14.855237 37.506767 C 13.205768 37.506626 11.858424 36.166801 11.858565 34.509586 L 11.858864 30.962835 L 12.671919 31.729559 C 12.780327 31.830242 12.91197 31.876719 13.043618 31.876728 C 13.190753 31.876743 13.330151 31.822544 13.438575 31.706394 C 13.639938 31.48958 13.632223 31.14884 13.415408 30.939734 L 11.688635 29.313351 C 11.688635 29.313351 11.680892 29.305605 11.680892 29.305605 C 11.673149 29.297861 11.673149 29.297861 11.665406 29.290113 C 11.657661 29.290113 11.657662 29.282373 11.649918 29.282372 C 11.642176 29.274628 11.642176 29.274628 11.634431 29.26688 C 11.626688 29.26688 11.626688 29.259136 11.618943 29.259136 C 11.6112 29.259136 11.6112 29.25139 11.603457 29.25139 C 11.595713 29.243649 11.58797 29.243649 11.58797 29.243649 C 11.580226 29.243645 11.580226 29.235901 11.572482 29.235901 C 11.564738 29.235899 11.564738 29.228157 11.556995 29.228155 C 11.549251 29.228155 11.541508 29.220409 11.533764 29.220409 C 11.526019 29.220407 11.52602 29.212664 11.518276 29.212662 C 11.510531 29.212662 11.510533 29.204922 11.502789 29.20492 C 11.495045 29.20492 11.487301 29.197172 11.479557 29.197172 C 11.471813 29.197172 11.471813 29.197172 11.46407 29.189428 C 11.456326 29.189426 11.456326 29.189426 11.448583 29.181683 C 11.440839 29.181683 11.433096 29.173935 11.425351 29.173935 C 11.417607 29.173935 11.417607 29.173935 11.409863 29.173933 C 11.40212 29.173933 11.40212 29.173933 11.394376 29.173933 C 11.386631 29.173931 11.378887 29.173931 11.371143 29.173931 C 11.3634 29.173931 11.3634 29.173931 11.355655 29.173927 C 11.347912 29.173927 11.347912 29.173927 11.340168 29.173927 C 11.332423 29.173925 11.324679 29.173925 11.316936 29.173925 C 11.309192 29.173925 11.301447 29.173923 11.301447 29.173923 C 11.301447 29.173923 11.293703 29.173923 11.293703 29.173923 C 11.293703 29.173923 11.28596 29.173923 11.28596 29.173923 C 11.278215 29.173923 11.270472 29.173922 11.270472 29.173922 C 11.262727 29.173922 11.254984 29.173922 11.24724 29.173918 C 11.239495 29.173918 11.239495 29.173918 11.231751 29.173918 C 11.224008 29.173918 11.224008 29.173918 11.216264 29.173916 C 11.208519 29.173916 11.200775 29.173916 11.193032 29.173914 C 11.185287 29.173914 11.185287 29.173914 11.177544 29.173914 C 11.169799 29.173914 11.169799 29.173914 11.162056 29.173912 C 11.154311 29.173912 11.146567 29.173912 11.138823 29.181656 C 11.131079 29.181656 11.131079 29.181656 11.123334 29.189398 C 11.11559 29.189398 11.11559 29.189398 11.107845 29.197142 C 11.100101 29.19714 11.092358 29.204885 11.084613 29.204884 C 11.076869 29.204884 11.076869 29.204884 11.069124 29.212624 C 11.06138 29.212624 11.06138 29.220369 11.053636 29.220367 C 11.045892 29.220367 11.038147 29.228111 11.030403 29.228109 C 11.022658 29.228109 11.022658 29.235853 11.014915 29.235853 C 11.00717 29.235851 11.00717 29.243599 10.999426 29.243599 C 10.991681 29.243595 10.983937 29.251337 10.983937 29.251337 C 10.976192 29.251335 10.976192 29.259083 10.968449 29.259083 C 10.960704 29.259079 10.960704 29.266825 10.95296 29.266825 C 10.945215 29.274569 10.945215 29.274569 10.93747 29.282312 C 10.929727 29.282312 10.929726 29.290052 10.921982 29.290052 C 10.914237 29.297796 10.914237 29.297796 10.906493 29.30554 C 10.906493 29.30554 10.898747 29.313282 10.898747 29.313282 L 9.1717 30.939379 C 8.95485 31.140703 8.939332 31.489183 9.148402 31.70603 C 9.256808 31.822199 9.396195 31.876421 9.543332 31.876432 C 9.674979 31.876446 9.806632 31.82999 9.915056 31.729324 L 10.728241 30.96274 L 10.727941 34.509491 Z"/>
    </g>
</svg>
